# xmcd
# Track frame offsets:
# 150
# 14852
# 29592
# 46355
# 62357
# 77095
# 90747
# 107135
# 119757
# 130642
# 146437
# 162632
#
# Disc length: 2410 seconds
# Revision: 0
# Processed by: cddbd v1.5.2PL0 Copyright (c) Steve Scherf et al.
# Submitted via: VisiTrax 2.9.5.180 - For more info visit www.synapsa.com
#
DISCID=a809680c
DTITLE=Michael Vraa - My mother's eyes
DYEAR=1993
DGENRE=Country
TTITLE0=Boot scooting boogie
TTITLE1=Heart broken woman
TTITLE2=Tulsa time
TTITLE3=Ships that don't come in
TTITLE4=Take a little trip
TTITLE5=Back yard
TTITLE6=If I could hold on to love
TTITLE7=My mother's eyes
TTITLE8=Good old country music
TTITLE9=By the time I get to Phoenix
TTITLE10=Don't look in my eyes
TTITLE11=Long walk
EXTD=
EXTT0=
EXTT1=
EXTT2=
EXTT3=
EXTT4=
EXTT5=
EXTT6=
EXTT7=
EXTT8=
EXTT9=
EXTT10=
EXTT11=
PLAYORDER=
